<?xml version="1.0" standalone="no"?>
<!DOCTYPE svg PUBLIC "-//W3C//DTD SVG 20010904//EN"
 "http://www.w3.org/TR/2001/REC-SVG-20010904/DTD/svg10.dtd">
<svg version="1.0" xmlns="http://www.w3.org/2000/svg"
 width="1163.000000pt" height="418.000000pt" viewBox="0 0 1163.000000 418.000000"
 preserveAspectRatio="xMidYMid meet">

<g transform="translate(0.000000,418.000000) scale(0.100000,-0.100000)"
fill="#000000" stroke="none">
<path d="M2150 3665 l0 -305 610 -305 c335 -168 616 -305 622 -305 7 0 148 67
313 149 l300 148 -922 461 -923 462 0 -305z"/>
<path d="M6160 2820 l0 -290 -75 0 -75 0 0 270 0 270 -115 0 -115 0 0 -795 0
-795 115 0 115 0 0 420 0 420 75 0 75 0 0 -465 0 -465 110 0 110 0 0 860 0
860 -110 0 -110 0 0 -290z"/>
<path d="M7780 2250 l0 -860 115 0 115 0 0 860 0 860 -115 0 -115 0 0 -860z"/>
<path d="M11100 3010 l0 -100 -135 0 -135 0 0 -100 0 -100 135 0 135 0 0 -55
0 -55 -135 0 -135 0 0 -100 0 -100 135 0 135 0 0 -170 0 -170 120 0 120 0 0
525 0 525 -120 0 -120 0 0 -100z"/>
<path d="M8450 2695 l0 -365 225 0 225 0 0 -50 0 -50 -330 0 -330 0 0 -95 0
-95 785 0 785 0 0 95 0 95 -335 0 -335 0 0 50 0 50 230 0 231 0 -3 93 -3 92
-452 3 -453 2 0 40 0 40 435 0 435 0 0 95 0 95 -435 0 -435 0 0 40 0 40 445 0
445 0 0 95 0 95 -565 0 -565 0 0 -365z"/>
<path d="M3088 2572 c-505 -250 -918 -458 -918 -462 0 -4 413 -212 918 -462
l917 -456 3 459 c1 253 1 665 0 918 l-3 459 -917 -456z"/>
<path d="M9980 2930 l0 -100 255 0 255 0 0 -80 0 -80 -255 0 -255 0 0 -277 0
-276 378 7 c326 5 557 17 567 28 2 2 -2 45 -7 97 l-11 94 -86 -7 c-47 -3 -204
-9 -348 -12 l-263 -7 0 81 0 82 255 0 255 0 0 275 0 275 -370 0 -370 0 0 -100z"/>
<path d="M7044 3010 c-187 -27 -329 -142 -369 -297 -43 -164 11 -346 127 -435
47 -36 128 -75 171 -83 l37 -7 0 -124 0 -124 -205 0 -205 0 0 -105 0 -105 213
0 c234 1 685 15 815 26 l83 7 -7 101 c-3 56 -7 102 -8 103 -1 1 -46 -2 -101
-7 -55 -4 -155 -11 -222 -14 l-123 -7 0 124 0 125 31 6 c113 22 249 136 288
241 30 79 30 241 0 320 -47 126 -200 235 -359 255 -84 11 -94 11 -166 0z m201
-224 c84 -39 125 -103 125 -193 -1 -135 -108 -221 -265 -211 -140 9 -215 82
-215 211 0 107 40 166 137 202 62 22 160 19 218 -9z"/>
<path d="M4947 2943 c-4 -3 -7 -251 -7 -551 l0 -544 333 5 c304 6 417 13 433
30 7 6 -13 188 -21 195 -2 2 -41 -1 -87 -7 -46 -6 -158 -14 -250 -17 l-168 -7
0 346 0 347 215 0 215 0 0 105 0 105 -328 0 c-181 0 -332 -3 -335 -7z"/>
<path d="M2150 2425 l0 -295 293 146 c160 80 294 148 296 150 3 3 -574 294
-584 294 -3 0 -5 -133 -5 -295z"/>
<path d="M2150 1795 c0 -162 2 -295 5 -295 10 0 587 291 584 294 -2 2 -136 70
-296 150 l-293 146 0 -295z"/>
<path d="M10645 2033 c-171 -27 -310 -104 -356 -200 -20 -40 -24 -64 -23 -143
0 -86 2 -100 29 -148 74 -136 284 -211 555 -199 196 9 319 49 409 131 65 60
81 102 81 216 0 115 -16 156 -84 218 -97 89 -211 123 -426 127 -85 2 -168 1
-185 -2z m287 -197 c75 -17 111 -33 151 -70 22 -21 27 -33 27 -75 0 -45 -3
-52 -40 -84 -56 -48 -140 -70 -265 -70 -158 0 -273 42 -302 111 -16 39 -10 87
16 116 61 70 259 104 413 72z"/>
<path d="M8887 1969 c-222 -22 -370 -101 -405 -218 -18 -58 -15 -160 7 -206
37 -81 138 -147 280 -182 99 -25 399 -24 506 1 108 25 180 60 235 115 56 56
75 113 68 206 -14 165 -158 260 -434 284 -131 12 -132 12 -257 0z m321 -203
c101 -28 150 -75 136 -131 -16 -65 -126 -100 -319 -100 -160 0 -246 19 -296
66 -52 49 -27 117 56 149 101 40 308 48 423 16z"/>
<path d="M2758 1164 l-608 -304 0 -304 0 -304 918 455 c504 251 919 457 921
459 5 5 -597 304 -611 303 -7 0 -286 -137 -620 -305z"/>
</g>
</svg>
